<svg width="70" height="70" viewBox="0 0 70 70" fill="none" xmlns="http://www.w3.org/2000/svg">
<path d="M26.4147 61.25V32.1533C26.4147 30.5425 27.7205 29.2367 29.3314 29.2367H41.1679C42.7788 29.2367 44.0846 30.5425 44.0846 32.1533V61.25M26.4147 61.25L26.4189 48.651C26.4195 47.0398 25.1135 45.7333 23.5023 45.7333H11.6667C10.0558 45.7333 8.75 47.0392 8.75 48.65V58.3333C8.75 59.9442 10.0558 61.25 11.6667 61.25H26.4147ZM26.4147 61.25H44.0846M44.0846 61.25V11.6667C44.0846 10.0558 45.3904 8.75 47.0013 8.75H58.3333C59.9442 8.75 61.25 10.0558 61.25 11.6667V58.3333C61.25 59.9442 59.9442 61.25 58.3333 61.25H44.0846Z" stroke="#232323" stroke-width="5.83333" stroke-linecap="round" stroke-linejoin="round"/>
</svg>
