<svg width="50" height="50" viewBox="0 0 180 180" fill="none" xmlns="http://www.w3.org/2000/svg">
<path d="M81.3921 4.96975C86.7187 1.89446 93.2813 1.89446 98.6079 4.96975L159.334 40.0302C164.661 43.1055 167.942 48.7889 167.942 54.9395V125.06C167.942 131.211 164.661 136.894 159.334 139.97L98.6079 175.03C93.2813 178.106 86.7187 178.106 81.3921 175.03L20.6656 139.97C15.339 136.894 12.0577 131.211 12.0577 125.06V54.9395C12.0577 48.7889 15.339 43.1055 20.6656 40.0302L81.3921 4.96975Z" fill="#2E2B28"/>
<path d="M81.3921 22.7206C86.7187 19.6453 93.2813 19.6453 98.6079 22.7206L143.962 48.9057C149.288 51.981 152.57 57.6643 152.57 63.8149V116.185C152.57 122.336 149.288 128.019 143.962 131.094L98.6079 157.279C93.2813 160.355 86.7187 160.355 81.3921 157.279L36.0383 131.094C30.7117 128.019 27.4304 122.336 27.4304 116.185V63.8149C27.4304 57.6644 30.7117 51.981 36.0383 48.9057L81.3921 22.7206Z" fill="#FFBE0B"/>
</svg>
