<svg width="70" height="70" viewBox="0 0 70 70" fill="none" xmlns="http://www.w3.org/2000/svg">
<path d="M56.7775 7C60.2139 7 62.9997 9.74762 62.9997 13.137L62.9997 56.863C62.9997 60.2524 60.2139 63 56.7775 63H47.4442C44.0077 63 41.2219 60.2524 41.2219 56.863L41.2219 13.137C41.2219 9.74762 44.0077 7 47.4442 7L56.7775 7Z" stroke="#232323" stroke-width="5.16667" stroke-linecap="round" stroke-linejoin="round"/>
<path d="M13.2219 7C9.7855 7 6.99971 9.74762 6.99971 13.137L6.99972 56.863C6.99972 60.2524 9.7855 63 13.2219 63H22.5553C25.9917 63 28.7775 60.2524 28.7775 56.863L28.7775 13.137C28.7775 9.74762 25.9917 7 22.5553 7L13.2219 7Z" stroke="#232323" stroke-width="5.16667" stroke-linecap="round" stroke-linejoin="round"/>
</svg>
