<svg width="70" height="70" viewBox="0 0 70 70" fill="none" xmlns="http://www.w3.org/2000/svg">
<path d="M33.0543 6.63917C34.1289 5.56461 35.8711 5.56461 36.9456 6.63917L44.7944 14.4879C45.8689 15.5625 45.8689 17.3047 44.7944 18.3792L36.9456 26.2279C35.8711 27.3025 34.1289 27.3025 33.0543 26.2279L25.2056 18.3792C24.131 17.3047 24.131 15.5625 25.2056 14.4879L33.0543 6.63917Z" stroke="#232323" stroke-width="6.25"/>
<path d="M51.6207 25.2055C52.6952 24.131 54.4374 24.131 55.512 25.2055L63.3607 33.0543C64.4353 34.1288 64.4353 35.871 63.3607 36.9456L55.512 44.7943C54.4374 45.8689 52.6952 45.8689 51.6207 44.7943L43.772 36.9456C42.6974 35.871 42.6974 34.1288 43.772 33.0543L51.6207 25.2055Z" stroke="#232323" stroke-width="6.25"/>
<path d="M14.488 25.2055C15.5625 24.131 17.3047 24.131 18.3793 25.2055L26.228 33.0543C27.3026 34.1288 27.3026 35.871 26.228 36.9456L18.3793 44.7943C17.3047 45.8689 15.5625 45.8689 14.488 44.7943L6.63923 36.9456C5.56467 35.871 5.56467 34.1288 6.63923 33.0543L14.488 25.2055Z" stroke="#232323" stroke-width="6.25"/>
<path d="M33.0543 43.7719C34.1289 42.6973 35.8711 42.6973 36.9456 43.7719L44.7944 51.6206C45.8689 52.6952 45.8689 54.4374 44.7944 55.5119L36.9456 63.3607C35.8711 64.4352 34.1289 64.4352 33.0543 63.3607L25.2056 55.5119C24.131 54.4374 24.131 52.6952 25.2056 51.6206L33.0543 43.7719Z" stroke="#232323" stroke-width="6.25"/>
</svg>
