<svg width="307" height="87" viewBox="0 0 307 87" fill="none" xmlns="http://www.w3.org/2000/svg">
<path d="M131.276 42.8573C136.231 40.0569 139.319 35.4613 139.319 29.1424C139.319 21.7464 133.287 17.5817 122.588 17.5817C119.285 17.5817 112.607 17.8689 106.432 18.2997H106.36L99.1073 70C104.134 70.4308 111.889 70.718 115.264 70.718C128.189 70.718 138.026 64.3991 138.026 53.4846C138.026 48.53 135.657 44.9397 131.276 42.8573ZM126.896 31.3684C126.896 36.0358 123.809 38.908 118.423 38.908H115.12L116.843 26.5574C118.423 26.4856 119.787 26.4856 120.865 26.4856C124.957 26.4856 126.896 28.3526 126.896 31.3684ZM116.772 61.8141C115.407 61.8141 113.756 61.8141 111.889 61.7423L113.828 47.812H119.5C123.45 47.812 125.747 50.1097 125.747 53.9155C125.747 58.3674 122.372 61.8141 116.772 61.8141ZM158.873 62.3886C154.637 62.3886 153.129 60.2344 153.057 56.3569C154.421 56.5723 155.858 56.6441 157.294 56.6441C166.916 56.6441 175.03 53.0538 175.03 43.36C175.03 36.8975 170.721 32.9481 162.823 32.9481C150.113 32.9481 142.717 43.001 142.717 55.926C142.717 65.3326 147.959 70.718 157.581 70.718C162.823 70.718 167.706 69.4255 172.086 66.6251L168.783 59.4445C166.054 61.1679 162.895 62.3886 158.873 62.3886ZM161.028 41.5648C163.254 41.5648 164.331 42.8573 164.331 44.7243C164.331 48.4582 160.956 50.4688 156.935 50.4688C155.929 50.4688 154.78 50.397 153.632 50.3252C154.637 45.2988 157.078 41.5648 161.028 41.5648ZM194.496 62.3886C190.259 62.3886 188.751 60.2344 188.68 56.3569C190.044 56.5723 191.48 56.6441 192.916 56.6441C202.538 56.6441 210.652 53.0538 210.652 43.36C210.652 36.8975 206.344 32.9481 198.445 32.9481C185.736 32.9481 178.34 43.001 178.34 55.926C178.34 65.3326 183.581 70.718 193.203 70.718C198.445 70.718 203.328 69.4255 207.708 66.6251L204.405 59.4445C201.676 61.1679 198.517 62.3886 194.496 62.3886ZM196.65 41.5648C198.876 41.5648 199.953 42.8573 199.953 44.7243C199.953 48.4582 196.578 50.4688 192.557 50.4688C191.552 50.4688 190.403 50.397 189.254 50.3252C190.259 45.2988 192.701 41.5648 196.65 41.5648ZM265.662 46.8785C265.878 45.586 265.949 44.5089 265.949 43.4318C265.949 36.8975 263.077 32.9481 257.907 32.9481C253.24 32.9481 249.937 34.6715 246.706 39.7697C245.844 35.4613 243.187 32.9481 239.094 32.9481C234.786 32.9481 231.339 34.9587 228.18 40.9186L228.323 39.6979C228.395 38.8362 228.395 38.7644 228.395 38.4054C228.395 35.2459 227.031 32.9481 224.015 32.9481C222.507 32.9481 220.353 33.4508 218.199 34.3124L213.244 70H224.374L225.882 59.6599C227.749 46.9503 229.759 41.7085 233.493 41.7085C235.073 41.7085 235.576 43.1446 235.576 45.3706C235.576 46.1604 235.504 47.0939 235.36 48.2428L232.344 70H243.331L244.839 59.6599C246.706 46.9503 248.716 41.7085 252.306 41.7085C253.886 41.7085 254.461 43.1446 254.461 45.2269C254.461 46.0168 254.389 47.0939 254.245 48.2428L251.947 64.6863C251.876 65.2608 251.876 65.548 251.876 65.8352C251.876 68.9229 253.312 70.718 256.543 70.718C259.056 70.718 261.21 70 263.723 68.8511C263.149 67.9894 262.934 66.7687 262.934 65.548C262.934 64.83 263.077 64.0401 263.149 63.4656L265.662 46.8785ZM286.49 70.718C299.2 70.718 306.596 61.6705 306.596 48.53C306.596 38.6926 301.139 32.9481 291.014 32.9481C278.089 32.9481 270.693 42.1393 270.693 55.2798C270.693 64.9736 276.15 70.718 286.49 70.718ZM287.352 61.8859C283.834 61.8859 281.823 59.3727 281.823 54.8489C281.823 48.8172 284.408 41.7085 289.865 41.7085C293.599 41.7085 295.466 44.2935 295.466 48.7454C295.466 54.9925 292.809 61.8859 287.352 61.8859Z" fill="#FFBE0B"/>
<path d="M36.5879 2.77716C39.4019 1.07042 42.9315 1.07042 45.7454 2.77716L72.5677 19.0458C75.2065 20.6463 76.818 23.5086 76.818 26.5948V59.9002C76.818 62.9865 75.2065 65.8487 72.5677 67.4493L45.7454 83.7179C42.9315 85.4246 39.4018 85.4246 36.5879 83.7179L9.76562 67.4493C7.12682 65.8487 5.51529 62.9865 5.51529 59.9002V26.5948C5.51529 23.5086 7.12682 20.6463 9.76563 19.0458L36.5879 2.77716Z" fill="#2E2B28"/>
<path d="M36.5879 11.3069C39.4019 9.60021 42.9315 9.60021 45.7454 11.3069L65.5361 23.3107C68.1749 24.9112 69.7865 27.7734 69.7865 30.8597V55.6353C69.7865 58.7216 68.1749 61.5838 65.5361 63.1844L45.7454 75.1881C42.9315 76.8948 39.4019 76.8948 36.5879 75.1881L16.7972 63.1844C14.1584 61.5838 12.5469 58.7216 12.5469 55.6353V30.8597C12.5469 27.7734 14.1584 24.9112 16.7972 23.3107L36.5879 11.3069Z" fill="#FFBE0B"/>
</svg>
