<svg width="70" height="70" viewBox="0 0 70 70" fill="none" xmlns="http://www.w3.org/2000/svg">
<path d="M29.1247 28.0002C29.1247 26.4124 27.8376 25.1252 26.2497 25.1252C24.6619 25.1252 23.3747 26.4124 23.3747 28.0002H29.1247ZM23.3747 63.0002C23.3747 64.5881 24.6619 65.8752 26.2497 65.8752C27.8376 65.8752 29.1247 64.5881 29.1247 63.0002H23.3747ZM17.4997 9.87524H52.4997V4.12524H17.4997V9.87524ZM60.1247 17.5002V52.5002H65.8747V17.5002H60.1247ZM52.4997 60.1252H17.4997V65.8752H52.4997V60.1252ZM9.87474 52.5002V17.5002H4.12474V52.5002H9.87474ZM17.4997 60.1252C13.2886 60.1252 9.87474 56.7114 9.87474 52.5002H4.12474C4.12474 59.8871 10.1129 65.8752 17.4997 65.8752V60.1252ZM60.1247 52.5002C60.1247 56.7114 56.7109 60.1252 52.4997 60.1252V65.8752C59.8865 65.8752 65.8747 59.8871 65.8747 52.5002H60.1247ZM52.4997 9.87524C56.7109 9.87524 60.1247 13.2891 60.1247 17.5002H65.8747C65.8747 10.1134 59.8865 4.12524 52.4997 4.12524V9.87524ZM17.4997 4.12524C10.1129 4.12524 4.12474 10.1134 4.12474 17.5002H9.87474C9.87474 13.2891 13.2886 9.87524 17.4997 9.87524V4.12524ZM23.3747 28.0002V63.0002H29.1247V28.0002H23.3747ZM8.74974 29.1252H61.2497V23.3752H8.74974V29.1252Z" fill="#232323"/>
</svg>
